<svg width="120" height="48" xmlns="http://www.w3.org/2000/svg">

 <g>
  <title>background</title>
  <rect fill="none" id="canvas_background" height="50" width="122" y="-1" x="-1"/>
 </g>
 <g>
  <title>Layer 1</title>
  <path fill="#444444" id="svg_2" d="m52.88871,8.666679l1.41,1.41l5.59,-5.58l0,12.17l2,0l0,-12.17l5.58,5.59l1.42,-1.42l-8,-8l-8,8z"/>
  <path id="svg_6" d="m68.888709,39.083233l-1.41,-1.41l-5.59,5.58l0,-12.17l-2,0l0,12.17l-5.58,-5.59l-1.42,1.42l8,8l8,-8z" fill="#444444"/>
  <rect id="svg_9" height="7.083307" width="108.749601" y="19.755223" x="6.597419" stroke-opacity="null" stroke-width="null" stroke="null" fill="#444444"/>
  <path transform="rotate(-93 100.88856506347659,31.86104011535646) " stroke-width="0" id="svg_8" d="m109.888562,22.861039l-18,7.53l0,0.98l6.84,2.65l2.64,6.84l0.98,0l7.54,-18z"/>
  <rect stroke="null" transform="rotate(-136 104.69935607910158,34.9915428161621) " id="svg_10" height="2.859243" width="14.444391" y="33.561917" x="97.477159" fill-opacity="null" stroke-opacity="null" stroke-width="0" fill="null"/>
 </g>
</svg>