<svg width="24" height="24" xmlns="http://www.w3.org/2000/svg">

 <g>
  <title>background</title>
  <rect fill="none" id="canvas_background" height="402" width="582" y="-1" x="-1"/>
 </g>
 <g>
  <title>Layer 1</title>
  <path id="svg_1" fill="none" d="m0,0l24,0l0,24l-24,0l0,-24z"/>
  <path fill="#ffffff" transform="rotate(90 11.952488899230957,12.000000000000002) " id="svg_2" d="m20.452489,13l-17,0c-0.55,0 -1,0.45 -1,1l0,6c0,0.55 0.45,1 1,1l17,0c0.55,0 1,-0.45 1,-1l0,-6c0,-0.55 -0.45,-1 -1,-1zm0,-10l-17,0c-0.55,0 -1,0.45 -1,1l0,6c0,0.55 0.45,1 1,1l17,0c0.55,0 1,-0.45 1,-1l0,-6c0,-0.55 -0.45,-1 -1,-1z"/>
 </g>
</svg>