<svg width="24" height="24" xmlns="http://www.w3.org/2000/svg">

 <g>
  <title>background</title>
  <rect fill="none" id="canvas_background" height="402" width="582" y="-1" x="-1"/>
 </g>
 <g>
  <title>Layer 1</title>
  <circle fill="#ffffff" id="svg_1" r="3.2" cy="12" cx="12"/>
  <path fill="#ffffff" id="svg_2" d="m9,2l-1.83,2l-3.17,0c-1.1,0 -2,0.9 -2,2l0,12c0,1.1 0.9,2 2,2l16,0c1.1,0 2,-0.9 2,-2l0,-12c0,-1.1 -0.9,-2 -2,-2l-3.17,0l-1.83,-2l-6,0zm3,15c-2.76,0 -5,-2.24 -5,-5s2.24,-5 5,-5s5,2.24 5,5s-2.24,5 -5,5z"/>
 </g>
</svg>