<svg width="24" height="24" xmlns="http://www.w3.org/2000/svg">

 <g>
  <title>background</title>
  <rect fill="none" id="canvas_background" height="402" width="582" y="-1" x="-1"/>
 </g>
 <g>
  <title>Layer 1</title>
  <path fill="#ffffff" id="svg_1" d="m12,6l0,3l4,-4l-4,-4l0,3c-4.42,0 -8,3.58 -8,8c0,1.57 0.46,3.03 1.24,4.26l1.46,-1.46c-0.45,-0.83 -0.7,-1.79 -0.7,-2.8c0,-3.31 2.69,-6 6,-6zm6.76,1.74l-1.46,1.46c0.44,0.84 0.7,1.79 0.7,2.8c0,3.31 -2.69,6 -6,6l0,-3l-4,4l4,4l0,-3c4.42,0 8,-3.58 8,-8c0,-1.57 -0.46,-3.03 -1.24,-4.26z"/>
 </g>
</svg>